<?xml version="1.0" standalone="no"?>
<!DOCTYPE svg PUBLIC "-//W3C//DTD SVG 20010904//EN"
 "http://www.w3.org/TR/2001/REC-SVG-20010904/DTD/svg10.dtd">
<svg version="1.0" xmlns="http://www.w3.org/2000/svg"
 width="300.000000pt" height="214.000000pt" viewBox="0 0 300.000000 214.000000"
 preserveAspectRatio="xMidYMid meet">
<metadata>
Created by potrace 1.10, written by Peter Selinger 2001-2011
</metadata>
<g transform="translate(0.000000,214.000000) scale(0.100000,-0.100000)"
fill="#000000" stroke="none">
<path d="M855 1855 c-66 -19 -119 -51 -158 -94 -82 -90 -87 -126 -87 -570 l0
-356 -221 -220 c-121 -121 -227 -232 -235 -247 -20 -38 -18 -107 6 -145 25
-42 68 -63 127 -63 l48 0 502 502 502 502 123 -120 c133 -131 155 -146 237
-163 137 -29 272 38 343 172 22 41 23 51 23 312 l0 270 -27 51 c-35 66 -115
138 -177 159 -77 25 -115 26 -187 4 -64 -20 -75 -28 -199 -150 l-131 -128
-119 119 c-90 90 -132 125 -175 144 -66 30 -140 38 -195 21z m130 -19 c17 -4
48 -17 70 -28 49 -26 206 -177 198 -191 -3 -6 -2 -7 4 -4 6 4 20 -4 32 -17
l22 -23 -26 -32 c-34 -39 -26 -40 13 -1 20 19 36 28 47 24 12 -5 50 27 138
113 67 66 138 128 157 138 19 10 64 20 100 23 56 4 75 0 122 -21 100 -46 163
-120 175 -206 3 -20 6 -139 6 -266 0 -167 -4 -238 -13 -260 -7 -16 -12 -34
-11 -38 1 -5 -25 -35 -58 -66 -44 -42 -74 -62 -108 -72 -67 -19 -149 -15 -203
9 -52 23 -122 80 -114 93 3 5 0 9 -7 9 -15 0 -95 80 -91 92 1 5 -2 7 -7 4 -5
-3 -25 12 -45 34 -28 31 -40 39 -53 32 -8 -5 -237 -230 -507 -499 -462 -461
-494 -491 -534 -498 -102 -17 -171 98 -108 179 13 17 119 128 235 246 138 140
209 220 206 229 -4 9 45 65 137 157 l143 143 -2 215 c-1 163 1 215 10 219 7 3
61 -43 121 -101 l108 -105 -111 -111 c-61 -61 -111 -115 -111 -119 0 -19 24 1
126 103 78 80 108 116 106 131 -5 30 -200 219 -226 219 -44 0 -46 -13 -46
-240 l-1 -215 -125 -125 -125 -125 3 365 4 365 26 56 c58 126 193 195 323 165z"/>
<path d="M1736 1588 c3 -4 1 -8 -3 -8 -16 0 -203 -192 -203 -209 0 -18 209
-231 227 -231 5 0 18 6 29 14 18 14 19 27 17 216 -1 138 -5 206 -13 215 -12
15 -63 17 -54 3z m42 -213 c1 -128 -1 -202 -8 -209 -7 -7 -43 22 -118 97
l-107 107 105 105 c58 58 109 104 115 102 6 -2 11 -79 13 -202z"/>
<path d="M1215 1469 c-4 -6 -5 -12 -2 -15 2 -3 7 2 10 11 7 17 1 20 -8 4z"/>
<path d="M1455 1292 c-5 -4 -28 -27 -50 -52 l-40 -44 46 39 c26 22 49 46 53
53 6 14 5 15 -9 4z"/>
<path d="M1318 829 c-5 -3 -1 -9 10 -11 19 -5 20 -13 19 -112 l-2 -106 68 0
c64 0 68 1 78 26 5 15 8 29 5 31 -2 3 -7 -4 -10 -15 -5 -15 -18 -21 -54 -24
-26 -3 -50 -3 -54 -1 -5 2 -8 25 -8 51 l0 47 51 -4 c36 -2 49 0 45 8 -4 6 -27
11 -52 11 l-44 0 0 45 0 45 48 0 c41 0 51 -4 60 -22 10 -21 11 -22 11 -3 0 11
-3 25 -7 31 -7 11 -146 14 -164 3z"/>
<path d="M1538 832 c-17 -3 -31 -39 -18 -47 4 -3 10 4 13 15 4 15 14 20 36 20
l31 0 0 -110 c0 -91 3 -110 15 -110 12 0 15 19 15 110 l0 110 42 0 c23 0 38 3
34 8 -7 7 -136 10 -168 4z"/>
<path d="M1872 823 c23 -27 48 -80 41 -87 -4 -3 -1 -6 5 -6 7 0 12 -6 12 -13
0 -7 11 -35 24 -63 l24 -49 35 73 c19 39 33 72 30 72 -3 0 1 10 9 23 21 32 29
57 19 57 -5 0 -24 -35 -41 -77 -18 -43 -36 -82 -40 -87 -7 -7 -70 113 -70 134
0 10 -40 40 -54 40 -5 0 -2 -8 6 -17z"/>
<path d="M2145 830 c-22 -4 -34 -8 -27 -9 10 -1 13 -25 10 -106 -3 -119 -6
-115 79 -115 41 0 59 5 69 18 21 26 17 48 -3 24 -12 -13 -35 -22 -65 -25 l-48
-5 0 52 0 52 49 -1 c28 -1 48 2 45 7 -3 4 -25 8 -50 8 l-44 0 0 45 0 45 48 0
c41 0 51 -4 60 -22 10 -21 11 -22 11 -3 0 11 -3 25 -7 30 -9 12 -74 15 -127 5z"/>
<path d="M2360 833 l-25 -4 3 -115 c2 -83 7 -114 15 -111 7 2 12 24 12 53 0
67 24 71 60 10 26 -44 71 -83 83 -72 3 4 -4 13 -16 22 -20 13 -69 93 -60 97
33 16 43 29 46 54 5 47 -48 77 -118 66z m80 -33 c25 -25 14 -61 -22 -74 -41
-14 -58 -2 -58 42 0 21 3 42 7 45 13 14 54 6 73 -13z"/>
<path d="M2559 828 c-39 -33 -42 -45 -18 -77 13 -17 29 -31 36 -31 24 0 82
-60 76 -78 -17 -44 -72 -44 -108 1 -24 30 -26 30 -23 8 2 -13 14 -32 28 -42
20 -15 32 -17 65 -9 78 18 84 67 15 117 -85 61 -91 70 -66 95 29 29 96 6 96
-33 0 -11 4 -19 8 -19 5 0 7 13 4 29 -6 44 -78 68 -113 39z"/>
<path d="M2750 833 l-25 -4 3 -114 3 -115 63 0 c66 0 86 11 85 45 0 19 -1 19
-9 -2 -7 -18 -18 -23 -50 -24 -22 -1 -46 -2 -52 -3 -9 -1 -13 15 -13 49 l0 50
53 0 c28 0 52 3 52 7 0 5 -25 8 -55 8 l-55 0 0 45 0 45 54 0 c49 0 55 -2 59
-22 4 -21 4 -20 6 3 2 37 -31 46 -119 32z"/>
<path d="M1036 793 c-10 -61 -7 -193 4 -193 6 0 10 41 11 103 l1 102 43 -90
c24 -49 43 -92 43 -95 -2 -37 44 36 69 110 24 73 33 70 35 -13 0 -42 1 -83 2
-89 1 -16 32 -48 46 -48 15 0 12 17 -5 24 -12 4 -15 27 -15 116 0 90 -3 110
-15 110 -14 0 -61 -77 -57 -92 1 -5 -3 -8 -9 -8 -5 0 -8 -3 -6 -8 3 -4 -3 -22
-12 -41 l-18 -33 -28 58 c-15 33 -34 74 -41 92 -19 43 -40 41 -48 -5z"/>
<path d="M1762 780 c-13 -27 -23 -52 -22 -55 0 -3 -13 -32 -30 -65 -17 -33
-26 -60 -20 -60 6 0 18 16 27 35 16 34 19 35 70 35 40 0 53 -4 53 -15 0 -20
36 -55 56 -55 14 0 13 3 -3 18 -11 9 -27 35 -35 57 -40 100 -63 155 -68 155
-3 0 -15 -22 -28 -50z m41 -35 c26 -55 23 -65 -23 -65 -29 0 -40 4 -40 15 0 8
5 15 10 15 6 0 9 3 8 8 -3 13 14 62 21 62 4 0 15 -16 24 -35z"/>
</g>
</svg>
