<?xml version="1.0" standalone="no"?>
<!DOCTYPE svg PUBLIC "-//W3C//DTD SVG 20010904//EN"
 "http://www.w3.org/TR/2001/REC-SVG-20010904/DTD/svg10.dtd">
<svg version="1.0" xmlns="http://www.w3.org/2000/svg"
 width="354.000000pt" height="252.000000pt" viewBox="0 0 354.000000 252.000000"
 preserveAspectRatio="xMidYMid meet">
<metadata>
Created by potrace 1.16, written by Peter Selinger 2001-2019
</metadata>
<g transform="translate(0.000000,252.000000) scale(0.100000,-0.100000)"
fill="#000000" stroke="none">
<path d="M1002 2185 c-74 -21 -108 -41 -168 -97 -32 -30 -62 -72 -80 -111
l-29 -62 -3 -465 -3 -465 176 175 175 175 0 253 c0 220 2 253 16 259 11 4 54
-33 143 -121 70 -69 124 -126 119 -126 -4 0 -8 -5 -8 -11 0 -6 -33 -43 -73
-82 -41 -40 -79 -82 -86 -94 -6 -13 -17 -23 -24 -23 -7 0 -20 -14 -29 -31 -10
-17 -22 -28 -26 -25 -5 3 -15 -12 -22 -34 -7 -21 -16 -39 -19 -38 -20 2 -31
-4 -31 -16 0 -8 -17 -32 -37 -53 -21 -22 -60 -66 -88 -98 -27 -33 -65 -74 -83
-93 -18 -18 -30 -37 -27 -43 4 -5 -5 -14 -19 -21 -14 -6 -26 -15 -26 -20 0 -4
-11 -18 -25 -30 -13 -11 -22 -24 -20 -28 3 -4 -5 -16 -16 -26 -12 -10 -27 -31
-35 -46 -8 -15 -23 -29 -34 -33 -11 -3 -20 -15 -20 -25 0 -10 -9 -22 -20 -25
-11 -3 -20 -12 -20 -18 0 -7 -16 -27 -35 -46 -19 -18 -35 -38 -35 -45 0 -7
-11 -23 -25 -36 -14 -13 -25 -29 -25 -36 0 -6 -6 -14 -13 -17 -9 -3 -12 -36
-10 -127 3 -106 1 -126 -14 -143 -17 -19 -17 -20 2 -10 11 6 25 9 30 7 6 -2
264 250 575 561 311 311 569 565 574 565 5 0 75 -65 155 -143 171 -169 209
-190 344 -190 69 0 86 4 152 37 81 40 138 96 177 174 23 46 23 51 23 372 l0
325 -25 49 c-33 65 -90 128 -143 159 -62 37 -162 60 -220 52 -102 -13 -152
-41 -258 -142 -54 -52 -96 -100 -92 -106 3 -5 2 -7 -4 -4 -9 6 -56 -35 -51
-44 2 -2 1 -3 -1 -2 -2 1 -14 -8 -27 -21 l-25 -22 -138 138 c-116 116 -150
143 -206 169 -81 37 -167 45 -243 24z m1098 -570 c0 -208 -2 -236 -16 -242
-12 -4 -51 28 -137 116 l-121 122 119 119 c66 66 128 120 137 120 17 0 18 -17
18 -235z"/>
</g>
</svg>
